<mxfile host="app.diagrams.net" agent="Mozilla/5.0 (Windows NT 10.0; Win64; x64) AppleWebKit/537.36 (KHTML, like Gecko) Chrome/136.0.0.0 Safari/537.36" version="26.0.8">
  <diagram id="C5RBs43oDa-KdzZeNtuy" name="Page-1">
    <mxGraphModel dx="1434" dy="738" grid="1" gridSize="10" guides="1" tooltips="1" connect="1" arrows="1" fold="1" page="1" pageScale="1" pageWidth="827" pageHeight="1169" math="0" shadow="0">
      <root>
        <mxCell id="WIyWlLk6GJQsqaUBKTNV-0" />
        <mxCell id="WIyWlLk6GJQsqaUBKTNV-1" parent="WIyWlLk6GJQsqaUBKTNV-0" />
        <mxCell id="SM-YedLt1l0PWx0XRoW2-3" style="edgeStyle=orthogonalEdgeStyle;rounded=0;orthogonalLoop=1;jettySize=auto;html=1;exitX=0.5;exitY=1;exitDx=0;exitDy=0;entryX=0.5;entryY=0;entryDx=0;entryDy=0;" edge="1" parent="WIyWlLk6GJQsqaUBKTNV-1" source="SM-YedLt1l0PWx0XRoW2-0" target="SM-YedLt1l0PWx0XRoW2-1">
          <mxGeometry relative="1" as="geometry" />
        </mxCell>
        <mxCell id="SM-YedLt1l0PWx0XRoW2-0" value="Nasłuch" style="swimlane;whiteSpace=wrap;html=1;startSize=23;" vertex="1" parent="WIyWlLk6GJQsqaUBKTNV-1">
          <mxGeometry x="100" y="230" width="200" height="100" as="geometry" />
        </mxCell>
        <mxCell id="SM-YedLt1l0PWx0XRoW2-11" value="Urządzenie nasłuchuje dźwięków otoczenia" style="text;html=1;align=center;verticalAlign=middle;whiteSpace=wrap;rounded=0;" vertex="1" parent="SM-YedLt1l0PWx0XRoW2-0">
          <mxGeometry x="30" y="30" width="140" height="50" as="geometry" />
        </mxCell>
        <mxCell id="SM-YedLt1l0PWx0XRoW2-4" style="edgeStyle=orthogonalEdgeStyle;rounded=0;orthogonalLoop=1;jettySize=auto;html=1;exitX=0.5;exitY=1;exitDx=0;exitDy=0;entryX=0.5;entryY=0;entryDx=0;entryDy=0;" edge="1" parent="WIyWlLk6GJQsqaUBKTNV-1" source="SM-YedLt1l0PWx0XRoW2-1" target="SM-YedLt1l0PWx0XRoW2-2">
          <mxGeometry relative="1" as="geometry" />
        </mxCell>
        <mxCell id="SM-YedLt1l0PWx0XRoW2-6" style="edgeStyle=orthogonalEdgeStyle;rounded=0;orthogonalLoop=1;jettySize=auto;html=1;exitX=1;exitY=0.5;exitDx=0;exitDy=0;entryX=1;entryY=0.5;entryDx=0;entryDy=0;" edge="1" parent="WIyWlLk6GJQsqaUBKTNV-1" source="SM-YedLt1l0PWx0XRoW2-1" target="SM-YedLt1l0PWx0XRoW2-0">
          <mxGeometry relative="1" as="geometry">
            <mxPoint x="410" y="270" as="targetPoint" />
            <Array as="points">
              <mxPoint x="300" y="490" />
              <mxPoint x="411" y="490" />
              <mxPoint x="411" y="280" />
            </Array>
          </mxGeometry>
        </mxCell>
        <mxCell id="SM-YedLt1l0PWx0XRoW2-1" value="Sprawdzanie i analiza" style="swimlane;whiteSpace=wrap;html=1;" vertex="1" parent="WIyWlLk6GJQsqaUBKTNV-1">
          <mxGeometry x="100" y="430" width="200" height="110" as="geometry" />
        </mxCell>
        <mxCell id="SM-YedLt1l0PWx0XRoW2-12" value="Sprawdzanie dźwięku pod kątem zadanych cech np. częstotliwości" style="text;html=1;align=center;verticalAlign=middle;whiteSpace=wrap;rounded=0;" vertex="1" parent="SM-YedLt1l0PWx0XRoW2-1">
          <mxGeometry x="40" y="40" width="130" height="50" as="geometry" />
        </mxCell>
        <mxCell id="SM-YedLt1l0PWx0XRoW2-8" style="edgeStyle=orthogonalEdgeStyle;rounded=0;orthogonalLoop=1;jettySize=auto;html=1;exitX=1;exitY=0.5;exitDx=0;exitDy=0;entryX=0;entryY=0.5;entryDx=0;entryDy=0;" edge="1" parent="WIyWlLk6GJQsqaUBKTNV-1" source="SM-YedLt1l0PWx0XRoW2-2" target="SM-YedLt1l0PWx0XRoW2-7">
          <mxGeometry relative="1" as="geometry" />
        </mxCell>
        <mxCell id="SM-YedLt1l0PWx0XRoW2-2" value="Nagrywanie" style="swimlane;whiteSpace=wrap;html=1;" vertex="1" parent="WIyWlLk6GJQsqaUBKTNV-1">
          <mxGeometry x="100" y="680" width="200" height="100" as="geometry" />
        </mxCell>
        <mxCell id="SM-YedLt1l0PWx0XRoW2-13" value="Nagranie wykrytego dźwięku" style="text;html=1;align=center;verticalAlign=middle;whiteSpace=wrap;rounded=0;" vertex="1" parent="SM-YedLt1l0PWx0XRoW2-2">
          <mxGeometry x="40" y="35" width="130" height="55" as="geometry" />
        </mxCell>
        <mxCell id="SM-YedLt1l0PWx0XRoW2-10" style="edgeStyle=orthogonalEdgeStyle;rounded=0;orthogonalLoop=1;jettySize=auto;html=1;exitX=1;exitY=0.5;exitDx=0;exitDy=0;" edge="1" parent="WIyWlLk6GJQsqaUBKTNV-1" source="SM-YedLt1l0PWx0XRoW2-7">
          <mxGeometry relative="1" as="geometry">
            <mxPoint x="410" y="490" as="targetPoint" />
          </mxGeometry>
        </mxCell>
        <mxCell id="SM-YedLt1l0PWx0XRoW2-7" value="Sygnał" style="swimlane;whiteSpace=wrap;html=1;startSize=23;" vertex="1" parent="WIyWlLk6GJQsqaUBKTNV-1">
          <mxGeometry x="370" y="680" width="200" height="100" as="geometry" />
        </mxCell>
        <mxCell id="SM-YedLt1l0PWx0XRoW2-9" value="Przykazuje sygnał do innego &lt;br&gt;urządzenia poprzez Bluetooth" style="text;html=1;align=center;verticalAlign=middle;resizable=0;points=[];autosize=1;strokeColor=none;fillColor=none;" vertex="1" parent="SM-YedLt1l0PWx0XRoW2-7">
          <mxGeometry x="10" y="30" width="180" height="40" as="geometry" />
        </mxCell>
        <mxCell id="SM-YedLt1l0PWx0XRoW2-14" value="+" style="text;html=1;align=center;verticalAlign=middle;whiteSpace=wrap;rounded=0;" vertex="1" parent="WIyWlLk6GJQsqaUBKTNV-1">
          <mxGeometry x="130" y="580" width="60" height="30" as="geometry" />
        </mxCell>
        <mxCell id="SM-YedLt1l0PWx0XRoW2-15" value="-" style="text;html=1;align=center;verticalAlign=middle;whiteSpace=wrap;rounded=0;" vertex="1" parent="WIyWlLk6GJQsqaUBKTNV-1">
          <mxGeometry x="330" y="450" width="60" height="30" as="geometry" />
        </mxCell>
      </root>
    </mxGraphModel>
  </diagram>
</mxfile>
